<svg xmlns="http://www.w3.org/2000/svg" width="158.6mm" height="335.4mm" viewBox="0 0 158.6 335.4">
<rect width="158.6" height="335.4" fill="white"/>
<g id="outlines" fill="none" stroke="black" stroke-width="0.3">
  <path d="M 10.0,120.06 L 10.0,215.31 L 102.08,215.31 L 102.08,120.06 L 10.0,120.06 Z"/>
  <path d="M 10.0,233.29 L 71.76,315.25 L 72.37,316.02 L 73.0,316.77 L 73.66,317.49 L 74.35,318.19 L 75.07,318.85 L 75.81,319.5 L 76.57,320.11 L 77.36,320.69 L 78.17,321.24 L 79.0,321.76 L 79.85,322.24 L 80.71,322.7 L 81.6,323.12 L 82.5,323.5 L 83.41,323.85 L 84.34,324.17 L 85.28,324.45 L 86.23,324.69 L 87.18,324.9 L 88.15,325.07 L 89.12,325.2 L 90.09,325.29 L 91.07,325.35 L 92.05,325.37 L 102.07,325.37 L 102.07,274.57 L 102.07,233.29 L 10.0,233.29 Z"/>
  <path d="M 135.93,208.96 L 135.93,126.41 L 135.92,125.99 L 135.88,125.58 L 135.81,125.17 L 135.72,124.76 L 135.6,124.37 L 135.45,123.98 L 135.28,123.6 L 135.08,123.23 L 134.86,122.88 L 134.62,122.54 L 134.36,122.22 L 134.07,121.92 L 133.77,121.63 L 133.45,121.37 L 133.11,121.13 L 132.76,120.91 L 132.39,120.71 L 132.01,120.54 L 131.62,120.4 L 131.23,120.27 L 130.82,120.18 L 130.41,120.11 L 130.0,120.07 L 129.58,120.06 L 120.06,120.06 L 120.06,215.31 L 129.58,215.31 L 130.0,215.29 L 130.41,215.25 L 130.82,215.19 L 131.23,215.09 L 131.62,214.97 L 132.01,214.82 L 132.39,214.65 L 132.76,214.46 L 133.11,214.24 L 133.45,214.0 L 133.77,213.73 L 134.07,213.45 L 134.36,213.15 L 134.62,212.82 L 134.86,212.49 L 135.08,212.13 L 135.28,211.77 L 135.45,211.39 L 135.6,211.0 L 135.72,210.6 L 135.81,210.2 L 135.88,209.79 L 135.92,209.37 L 135.93,208.96 Z"/>
  <path d="M 71.76,20.11 L 10.0,102.07 L 102.07,102.07 L 102.07,60.8 L 102.07,10.0 L 92.05,10.0 L 91.07,10.02 L 90.09,10.08 L 89.12,10.17 L 88.15,10.3 L 87.18,10.47 L 86.23,10.68 L 85.28,10.92 L 84.34,11.2 L 83.41,11.51 L 82.5,11.86 L 81.6,12.25 L 80.71,12.67 L 79.85,13.12 L 79.0,13.61 L 78.17,14.13 L 77.36,14.68 L 76.57,15.26 L 75.81,15.87 L 75.07,16.51 L 74.35,17.18 L 73.66,17.88 L 73.0,18.6 L 72.37,19.34 L 71.76,20.11 Z"/>
  <path d="M 120.06,325.37 L 142.28,325.37 L 142.7,325.35 L 143.11,325.31 L 143.52,325.24 L 143.93,325.15 L 144.32,325.03 L 144.71,324.88 L 145.09,324.71 L 145.46,324.52 L 145.81,324.3 L 146.15,324.05 L 146.47,323.79 L 146.77,323.51 L 147.06,323.2 L 147.32,322.88 L 147.56,322.54 L 147.78,322.19 L 147.98,321.83 L 148.15,321.45 L 148.3,321.06 L 148.42,320.66 L 148.51,320.26 L 148.58,319.85 L 148.62,319.43 L 148.63,319.02 L 148.63,280.92 L 148.62,280.5 L 148.58,280.09 L 148.51,279.68 L 148.42,279.27 L 148.3,278.88 L 148.15,278.49 L 147.98,278.11 L 147.78,277.74 L 147.56,277.39 L 147.32,277.05 L 147.06,276.73 L 146.77,276.43 L 146.47,276.14 L 146.15,275.88 L 145.81,275.64 L 145.46,275.42 L 145.09,275.22 L 144.71,275.05 L 144.32,274.9 L 143.93,274.78 L 143.52,274.69 L 143.11,274.62 L 142.7,274.58 L 142.28,274.57 L 120.06,274.57 L 120.06,325.37 Z"/>
  <path d="M 135.93,208.96 L 135.93,126.41 L 135.93,126.41 L 135.93,208.96 L 135.93,208.96 Z"/>
  <path d="M 148.63,54.45 L 148.63,16.35 L 148.62,15.93 L 148.58,15.52 L 148.51,15.11 L 148.42,14.71 L 148.3,14.31 L 148.15,13.92 L 147.98,13.54 L 147.78,13.18 L 147.56,12.82 L 147.32,12.48 L 147.06,12.16 L 146.77,11.86 L 146.47,11.58 L 146.15,11.31 L 145.81,11.07 L 145.46,10.85 L 145.09,10.65 L 144.71,10.48 L 144.32,10.34 L 143.93,10.22 L 143.52,10.12 L 143.11,10.05 L 142.7,10.01 L 142.28,10.0 L 120.06,10.0 L 120.06,60.8 L 142.28,60.8 L 142.7,60.79 L 143.11,60.75 L 143.52,60.68 L 143.93,60.58 L 144.32,60.46 L 144.71,60.32 L 145.09,60.15 L 145.46,59.95 L 145.81,59.73 L 146.15,59.49 L 146.47,59.22 L 146.77,58.94 L 147.06,58.64 L 147.32,58.32 L 147.56,57.98 L 147.78,57.62 L 147.98,57.26 L 148.15,56.88 L 148.3,56.49 L 148.42,56.09 L 148.51,55.69 L 148.58,55.28 L 148.62,54.87 L 148.63,54.45 Z"/>
</g>
<g id="bendlines" fill="none" stroke="blue" stroke-width="0.3" stroke-dasharray="2,1">
  <line x1="-490.0" y1="215.31" x2="510.0" y2="215.31"/>
  <line x1="102.08" y1="715.31" x2="102.08" y2="-284.69"/>
  <line x1="-490.0" y1="120.06" x2="510.0" y2="120.06"/>
  <line x1="102.07" y1="825.37" x2="102.07" y2="-174.63"/>
  <line x1="489.49" y1="479.96" x2="-217.62" y2="-227.15"/>
  <line x1="-223.97" y1="568.86" x2="483.14" y2="-138.25"/>
  <line x1="102.07" y1="-490.0" x2="102.07" y2="510.0"/>
</g>
<g id="dims" font-family="sans-serif" font-size="3" fill="#333">
  <text x="79.3" y="333.4" text-anchor="middle">Flat: 138.6 x 315.4 mm  t=3.2mm</text>
  <text x="156.6" y="5.0" text-anchor="end" fill="blue">Bend 1: R=6.3 90° BA=11.6mm</text>
  <text x="156.6" y="9.5" text-anchor="end" fill="blue">Bend 2: R=6.3 90° BA=11.6mm</text>
  <text x="156.6" y="14.0" text-anchor="end" fill="blue">Bend 3: R=6.3 90° BA=11.6mm</text>
  <text x="156.6" y="18.5" text-anchor="end" fill="blue">Bend 4: R=6.3 90° BA=11.6mm</text>
  <text x="156.6" y="23.0" text-anchor="end" fill="blue">Bend 5: R=6.3 90° BA=11.6mm</text>
</g>
</svg>